<?xml version="1.0" encoding="UTF-8"?>
<!DOCTYPE svg PUBLIC "-//W3C//DTD SVG 1.1//EN" "http://www.w3.org/Graphics/SVG/1.1/DTD/svg11.dtd">
<svg xmlns="http://www.w3.org/2000/svg" version="1.1" width="512px" height="512px" style="shape-rendering:geometricPrecision; text-rendering:geometricPrecision; image-rendering:optimizeQuality; fill-rule:evenodd; clip-rule:evenodd" xmlns:xlink="http://www.w3.org/1999/xlink">
<g><path style="opacity:0.994" fill="#000000" d="M 94.5,63.5 C 201.834,63.3333 309.167,63.5 416.5,64C 446.431,71.2648 463.931,90.0982 469,120.5C 469.667,223.833 469.667,327.167 469,430.5C 464.469,444.355 454.969,449.855 440.5,447C 408.229,426.393 376.229,405.393 344.5,384C 261.167,383.667 177.833,383.333 94.5,383C 64.5691,375.735 47.0691,356.902 42,326.5C 41.3333,257.833 41.3333,189.167 42,120.5C 47.2509,90.087 64.7509,71.087 94.5,63.5 Z M 234.5,138.5 C 248.5,138.5 262.5,138.5 276.5,138.5C 276.5,148.833 276.5,159.167 276.5,169.5C 262.5,169.5 248.5,169.5 234.5,169.5C 234.5,159.167 234.5,148.833 234.5,138.5 Z M 223.5,202.5 C 235.171,202.333 246.838,202.5 258.5,203C 268.333,204.833 274.167,210.667 276,220.5C 276.5,242.831 276.667,265.164 276.5,287.5C 280.167,287.5 283.833,287.5 287.5,287.5C 287.5,301.5 287.5,315.5 287.5,329.5C 266.167,329.5 244.833,329.5 223.5,329.5C 223.5,315.5 223.5,301.5 223.5,287.5C 227.167,287.5 230.833,287.5 234.5,287.5C 234.5,273.167 234.5,258.833 234.5,244.5C 230.833,244.5 227.167,244.5 223.5,244.5C 223.5,230.5 223.5,216.5 223.5,202.5 Z"/></g>
</svg>
