<?xml version="1.0" encoding="UTF-8"?>
<!DOCTYPE svg PUBLIC "-//W3C//DTD SVG 1.1//EN" "http://www.w3.org/Graphics/SVG/1.1/DTD/svg11.dtd">
<svg xmlns="http://www.w3.org/2000/svg" version="1.1" width="512px" height="512px" style="shape-rendering:geometricPrecision; text-rendering:geometricPrecision; image-rendering:optimizeQuality; fill-rule:evenodd; clip-rule:evenodd" xmlns:xlink="http://www.w3.org/1999/xlink">
<g><path style="opacity:0.988" fill="#ffffff" d="M 139.5,31.5 C 148.665,30.4421 157.332,31.9421 165.5,36C 182.791,49.6223 199.791,63.6223 216.5,78C 271.132,126.964 325.466,176.297 379.5,226C 396.718,241.694 398.885,259.194 386,278.5C 314.99,345.187 242.49,410.02 168.5,473C 158.31,479.58 147.31,481.246 135.5,478C 119.595,470.351 113.762,457.851 118,440.5C 142.725,384.049 167.725,327.716 193,271.5C 197.667,260.833 197.667,250.167 193,239.5C 167.725,183.284 142.725,126.951 118,70.5C 113.756,50.9746 120.922,37.9746 139.5,31.5 Z"/></g>
</svg>
