<?xml version="1.0" encoding="UTF-8"?>
<!DOCTYPE svg PUBLIC "-//W3C//DTD SVG 1.1//EN" "http://www.w3.org/Graphics/SVG/1.1/DTD/svg11.dtd">
<svg xmlns="http://www.w3.org/2000/svg" version="1.1" width="512px" height="512px" style="shape-rendering:geometricPrecision; text-rendering:geometricPrecision; image-rendering:optimizeQuality; fill-rule:evenodd; clip-rule:evenodd" xmlns:xlink="http://www.w3.org/1999/xlink">
<g><path style="opacity:0.974" fill="#ffffff" d="M 511.5,133.5 C 511.5,138.167 511.5,142.833 511.5,147.5C 509.963,150.9 508.13,154.233 506,157.5C 428.167,235.333 350.333,313.167 272.5,391C 261.167,398.333 249.833,398.333 238.5,391C 160.667,313.167 82.8333,235.333 5,157.5C 2.8703,154.233 1.03697,150.9 -0.5,147.5C -0.5,142.833 -0.5,138.167 -0.5,133.5C 5.37988,118.553 16.3799,112.386 32.5,115C 36.1122,116.139 39.4456,117.806 42.5,120C 113.347,191.014 184.347,261.847 255.5,332.5C 326.653,261.847 397.653,191.014 468.5,120C 479.26,113.066 490.26,112.733 501.5,119C 506.226,122.977 509.559,127.811 511.5,133.5 Z"/></g>
</svg>
