<?xml version="1.0" encoding="UTF-8"?>
<!DOCTYPE svg PUBLIC "-//W3C//DTD SVG 1.1//EN" "http://www.w3.org/Graphics/SVG/1.1/DTD/svg11.dtd">
<svg xmlns="http://www.w3.org/2000/svg" version="1.1" width="512px" height="512px" style="shape-rendering:geometricPrecision; text-rendering:geometricPrecision; image-rendering:optimizeQuality; fill-rule:evenodd; clip-rule:evenodd" xmlns:xlink="http://www.w3.org/1999/xlink">
<g><path style="opacity:0.975" fill="#212121" d="M 237.5,50.5 C 303.847,46.6087 359.014,69.2753 403,118.5C 414.71,132.396 424.21,147.729 431.5,164.5C 470.282,167.457 494.116,187.791 503,225.5C 503.946,248.209 503.613,270.876 502,293.5C 491.733,328.429 468.399,347.095 432,349.5C 427.316,348.899 422.65,348.232 418,347.5C 386.281,393.633 342.781,422.133 287.5,433C 277.981,454.261 261.648,463.261 238.5,460C 220.549,455.716 209.716,444.549 206,426.5C 203.998,396.67 217.832,380.003 247.5,376.5C 265.246,377.534 278.246,385.867 286.5,401.5C 346.837,387.665 387.67,351.665 409,293.5C 428.774,220.159 409.274,159.659 350.5,112C 301.108,78.2802 248.441,72.2802 192.5,94C 129.898,123.992 96.8976,173.826 93.5,243.5C 94.2715,271.587 101.438,297.92 115,322.5C 117.842,330.971 115.676,337.804 108.5,343C 67.6054,356.961 36.1054,345.461 14,308.5C 11.193,302.079 9.19299,295.412 8,288.5C 7.33333,267.5 7.33333,246.5 8,225.5C 14.64,194.194 33.4734,174.694 64.5,167C 69.5211,166.276 74.5211,165.442 79.5,164.5C 111.695,98.3282 164.362,60.3282 237.5,50.5 Z M 201.5,228.5 C 214.829,227.994 220.663,234.328 219,247.5C 213.641,257.176 206.141,259.343 196.5,254C 189.861,246.465 189.861,238.965 196.5,231.5C 198.145,230.304 199.811,229.304 201.5,228.5 Z M 251.5,228.5 C 265.103,227.717 270.937,234.051 269,247.5C 263.641,257.176 256.141,259.343 246.5,254C 240.26,246.937 239.927,239.604 245.5,232C 247.432,230.541 249.432,229.375 251.5,228.5 Z M 301.5,228.5 C 314.829,227.994 320.663,234.328 319,247.5C 313.641,257.176 306.141,259.343 296.5,254C 290.26,246.937 289.927,239.604 295.5,232C 297.432,230.541 299.432,229.375 301.5,228.5 Z"/></g>
<g><path style="opacity:0.987" fill="#212121" d="M 242.5,116.5 C 294.79,113.894 335.29,134.228 364,177.5C 385.024,216.198 387.024,255.865 370,296.5C 342.262,348.627 298.762,372.46 239.5,368C 233.554,366.541 227.554,365.874 221.5,366C 205.5,375.333 189.5,384.667 173.5,394C 159.933,399.055 151.933,394.555 149.5,380.5C 153.314,363.22 157.647,346.054 162.5,329C 132.182,293.553 122.682,253.053 134,207.5C 147.672,165.161 175.505,136.661 217.5,122C 225.874,119.695 234.207,117.861 242.5,116.5 Z M 201.5,228.5 C 199.811,229.304 198.145,230.304 196.5,231.5C 189.861,238.965 189.861,246.465 196.5,254C 206.141,259.343 213.641,257.176 219,247.5C 220.663,234.328 214.829,227.994 201.5,228.5 Z M 251.5,228.5 C 249.432,229.375 247.432,230.541 245.5,232C 239.927,239.604 240.26,246.937 246.5,254C 256.141,259.343 263.641,257.176 269,247.5C 270.937,234.051 265.103,227.717 251.5,228.5 Z M 301.5,228.5 C 299.432,229.375 297.432,230.541 295.5,232C 289.927,239.604 290.26,246.937 296.5,254C 306.141,259.343 313.641,257.176 319,247.5C 320.663,234.328 314.829,227.994 301.5,228.5 Z"/></g>
</svg>
