<?xml version="1.0" encoding="UTF-8"?>
<!DOCTYPE svg PUBLIC "-//W3C//DTD SVG 1.1//EN" "http://www.w3.org/Graphics/SVG/1.1/DTD/svg11.dtd">
<svg xmlns="http://www.w3.org/2000/svg" version="1.1" width="512px" height="512px" style="shape-rendering:geometricPrecision; text-rendering:geometricPrecision; image-rendering:optimizeQuality; fill-rule:evenodd; clip-rule:evenodd" xmlns:xlink="http://www.w3.org/1999/xlink">
<g><path style="opacity:0.989" fill="#000000" d="M 245.5,52.5 C 257.82,51.5484 269.82,53.0484 281.5,57C 345.155,91.4925 408.488,126.493 471.5,162C 487.45,176.665 489.617,193.165 478,211.5C 474.749,215.422 470.916,218.588 466.5,221C 426.253,243.04 386.086,265.206 346,287.5C 345.667,280.833 345.333,274.167 345,267.5C 344.439,265.275 343.439,263.275 342,261.5C 316.5,236 291,210.5 265.5,185C 255.068,178.82 246.901,180.987 241,191.5C 240.209,195.926 240.543,200.259 242,204.5C 265.638,229.139 289.638,253.472 314,277.5C 314.832,286.851 314.665,296.184 313.5,305.5C 302.625,311.535 291.625,317.368 280.5,323C 257.283,330.515 235.283,327.848 214.5,315C 155.833,282.333 97.1667,249.667 38.5,217C 20.6302,197.69 21.2969,179.023 40.5,161C 104.211,125.478 168.211,90.4776 232.5,56C 236.999,54.961 241.332,53.7943 245.5,52.5 Z"/></g>
<g><path style="opacity:0.98" fill="#000000" d="M 89.5,269.5 C 128.593,289.88 167.26,311.047 205.5,333C 242.369,353.524 278.369,352.024 313.5,328.5C 314.5,357.492 314.833,386.492 314.5,415.5C 324.865,415.733 335.198,415.4 345.5,414.5C 345.333,379.832 345.5,345.165 346,310.5C 370.592,296.453 395.426,282.786 420.5,269.5C 421.666,293.826 421.833,318.16 421,342.5C 414.441,385.559 389.608,409.893 346.5,415.5C 346.667,426.172 346.5,436.839 346,447.5C 340.361,458.691 331.861,461.525 320.5,456C 317.894,454.062 316.061,451.562 315,448.5C 313.569,437.578 313.069,426.578 313.5,415.5C 261.499,415.667 209.499,415.5 157.5,415C 118.096,406.595 95.5959,382.429 90,342.5C 89.5,318.169 89.3334,293.836 89.5,269.5 Z"/></g>
</svg>
