<?xml version="1.0" encoding="UTF-8"?>
<!DOCTYPE svg PUBLIC "-//W3C//DTD SVG 1.1//EN" "http://www.w3.org/Graphics/SVG/1.1/DTD/svg11.dtd">
<svg xmlns="http://www.w3.org/2000/svg" version="1.1" width="512px" height="512px" style="shape-rendering:geometricPrecision; text-rendering:geometricPrecision; image-rendering:optimizeQuality; fill-rule:evenodd; clip-rule:evenodd" xmlns:xlink="http://www.w3.org/1999/xlink">
<g><path style="opacity:0.995" fill="#212121" d="M 69.5,47.5 C 172.167,47.3333 274.834,47.5 377.5,48C 397.333,53.1667 409.833,65.6667 415,85.5C 415.667,156.167 415.667,226.833 415,297.5C 409.833,317.333 397.333,329.833 377.5,335C 296.131,335.014 214.798,335.681 133.5,337C 107.803,356.518 82.4697,376.518 57.5,397C 50.8333,400.333 44.1667,400.333 37.5,397C 34.8941,395.062 33.0608,392.562 32,389.5C 31.3333,288.167 31.3333,186.833 32,85.5C 37.3488,65.6518 49.8488,52.9852 69.5,47.5 Z M 219.5,111.5 C 257.215,115.275 273.715,135.942 269,173.5C 264.223,189.275 254.223,200.275 239,206.5C 238.739,217.587 233.239,224.254 222.5,226.5C 209.797,223.447 204.963,215.447 208,202.5C 211.541,189.288 219.707,180.122 232.5,175C 239.991,168.006 241.491,159.84 237,150.5C 227.333,139.833 217.667,139.833 208,150.5C 203.549,163.425 195.049,167.258 182.5,162C 178.585,158.502 176.251,154.168 175.5,149C 182.082,126.912 196.748,114.412 219.5,111.5 Z M 222.5,239.5 C 236.986,242.472 241.486,250.806 236,264.5C 229.749,271.011 222.582,272.177 214.5,268C 206.5,259.667 206.5,251.333 214.5,243C 217.158,241.522 219.825,240.355 222.5,239.5 Z"/></g>
<g><path style="opacity:0.993" fill="#212121" d="M 447.5,161.5 C 464.237,168.068 474.737,180.068 479,197.5C 479.667,282.833 479.667,368.167 479,453.5C 474.527,462.482 467.36,465.649 457.5,463C 436.173,451.835 414.506,441.502 392.5,432C 326.122,431.986 259.789,431.32 193.5,430C 175.725,423.892 164.559,411.726 160,393.5C 159.5,384.84 159.334,376.173 159.5,367.5C 229.167,367.667 298.834,367.5 368.5,367C 404.9,364.558 429.734,346.391 443,312.5C 444.158,308.203 445.158,303.869 446,299.5C 447.436,253.519 447.936,207.519 447.5,161.5 Z"/></g>
</svg>
