<?xml version="1.0" encoding="UTF-8"?>
<!DOCTYPE svg PUBLIC "-//W3C//DTD SVG 1.1//EN" "http://www.w3.org/Graphics/SVG/1.1/DTD/svg11.dtd">
<svg xmlns="http://www.w3.org/2000/svg" version="1.1" width="512px" height="512px" style="shape-rendering:geometricPrecision; text-rendering:geometricPrecision; image-rendering:optimizeQuality; fill-rule:evenodd; clip-rule:evenodd" xmlns:xlink="http://www.w3.org/1999/xlink">
<g><path style="opacity:0.983" fill="#000000" d="M 247.5,99.5 C 259.998,97.8029 271.664,99.9696 282.5,106C 335.801,149.647 389.468,192.813 443.5,235.5C 457.774,256.099 453.441,271.599 430.5,282C 423.953,283.777 417.286,284.777 410.5,285C 411.662,315.762 411.829,346.595 411,377.5C 407.526,395.641 396.693,406.474 378.5,410C 351.438,410.974 324.438,410.64 297.5,409C 295.898,407.065 294.731,404.899 294,402.5C 293.983,375.413 293.316,348.413 292,321.5C 289.11,317.633 285.277,315.133 280.5,314C 265.5,313.333 250.5,313.333 235.5,314C 228.71,315.793 224.21,319.96 222,326.5C 221.667,352.833 221.333,379.167 221,405.5C 219.773,407.726 217.939,409.226 215.5,410C 189.167,410.667 162.833,410.667 136.5,410C 121.379,406.537 110.879,397.704 105,383.5C 104.5,350.502 104.333,317.502 104.5,284.5C 90.2697,285.454 78.4364,280.787 69,270.5C 68,268.5 67,266.5 66,264.5C 65.3333,258.167 65.3333,251.833 66,245.5C 67.497,241.835 69.497,238.502 72,235.5C 125.122,193.38 177.956,150.88 230.5,108C 235.712,104.061 241.379,101.227 247.5,99.5 Z"/></g>
</svg>
