<?xml version="1.0" encoding="UTF-8"?>
<!DOCTYPE svg PUBLIC "-//W3C//DTD SVG 1.1//EN" "http://www.w3.org/Graphics/SVG/1.1/DTD/svg11.dtd">
<svg xmlns="http://www.w3.org/2000/svg" version="1.1" width="512px" height="512px" style="shape-rendering:geometricPrecision; text-rendering:geometricPrecision; image-rendering:optimizeQuality; fill-rule:evenodd; clip-rule:evenodd" xmlns:xlink="http://www.w3.org/1999/xlink">
<g><path style="opacity:0.993" fill="#ffffff80" d="M 123.5,-0.5 C 211.5,-0.5 299.5,-0.5 387.5,-0.5C 445.06,8.8852 484.226,40.8852 505,95.5C 507.832,104.819 509.999,114.153 511.5,123.5C 511.5,211.5 511.5,299.5 511.5,387.5C 502.115,445.06 470.115,484.226 415.5,505C 406.181,507.832 396.847,509.999 387.5,511.5C 299.5,511.5 211.5,511.5 123.5,511.5C 65.9402,502.115 26.7736,470.115 6,415.5C 3.16778,406.181 1.00111,396.847 -0.5,387.5C -0.5,299.5 -0.5,211.5 -0.5,123.5C 8.8852,65.9402 40.8852,26.7736 95.5,6C 104.819,3.16778 114.153,1.00111 123.5,-0.5 Z M 399.5,64.5 C 424.948,64.4577 440.448,76.791 446,101.5C 446.835,125.663 435.668,141.163 412.5,148C 386.816,150.305 370.316,139.139 363,114.5C 361.243,87.4518 373.409,70.7852 399.5,64.5 Z M 246.5,115.5 C 311.194,115.419 357.361,144.419 385,202.5C 405.964,262.803 393.798,315.303 348.5,360C 304.684,395.97 256.018,404.303 202.5,385C 147.484,359.508 118.484,316.341 115.5,255.5C 118.484,194.659 147.484,151.492 202.5,126C 216.845,120.579 231.512,117.079 246.5,115.5 Z"/></g>
<g><path style="opacity:0.908" fill="#ffffff80" d="M 401.5,93.5 C 413.8,94.2865 418.634,100.62 416,112.5C 410.932,119.868 404.432,121.368 396.5,117C 388.639,107.005 390.305,99.1718 401.5,93.5 Z"/></g>
<g><path style="opacity:0.99" fill="#ffffff80" d="M 251.5,144.5 C 305.22,145.924 341.72,171.591 361,221.5C 373.39,267.787 362.223,307.287 327.5,340C 279.5,375.333 231.5,375.333 183.5,340C 148.777,307.287 137.61,267.787 150,221.5C 162.5,186.333 186.333,162.5 221.5,150C 231.468,147.174 241.468,145.341 251.5,144.5 Z"/></g>
</svg>
