<?xml version="1.0" encoding="UTF-8"?>
<!DOCTYPE svg PUBLIC "-//W3C//DTD SVG 1.1//EN" "http://www.w3.org/Graphics/SVG/1.1/DTD/svg11.dtd">
<svg xmlns="http://www.w3.org/2000/svg" version="1.1" width="512px" height="512px" style="shape-rendering:geometricPrecision; text-rendering:geometricPrecision; image-rendering:optimizeQuality; fill-rule:evenodd; clip-rule:evenodd" xmlns:xlink="http://www.w3.org/1999/xlink">
<g><path style="opacity:0.982" fill="#ffffff80" d="M 49.5,-0.5 C 57.1667,-0.5 64.8333,-0.5 72.5,-0.5C 108.851,10.1628 125.351,34.4961 122,72.5C 113.838,103.991 93.5047,120.991 61,123.5C 28.4746,120.794 7.97455,103.794 -0.5,72.5C -0.5,64.8333 -0.5,57.1667 -0.5,49.5C 6.5,23.1667 23.1667,6.5 49.5,-0.5 Z"/></g>
<g><path style="opacity:0.991" fill="#ffffff80" d="M 511.5,291.5 C 511.5,364.833 511.5,438.167 511.5,511.5C 475.833,511.5 440.167,511.5 404.5,511.5C 404.667,445.832 404.5,380.166 404,314.5C 400.508,266.673 375.342,247.84 328.5,258C 307.467,265.04 294.967,279.54 291,301.5C 289.675,307.782 288.675,314.115 288,320.5C 287.5,384.166 287.333,447.832 287.5,511.5C 251.833,511.5 216.167,511.5 180.5,511.5C 180.5,397.5 180.5,283.5 180.5,169.5C 214.5,169.5 248.5,169.5 282.5,169.5C 282.333,184.837 282.5,200.17 283,215.5C 306.87,178.561 341.037,160.227 385.5,160.5C 416.919,159.264 445.253,167.764 470.5,186C 489.254,204.335 501.088,226.501 506,252.5C 508.392,265.57 510.226,278.57 511.5,291.5 Z"/></g>
<g><path style="opacity:0.992" fill="#ffffff80" d="M 114.5,511.5 C 78.8333,511.5 43.1667,511.5 7.5,511.5C 7.5,397.5 7.5,283.5 7.5,169.5C 43.1667,169.5 78.8333,169.5 114.5,169.5C 114.5,283.5 114.5,397.5 114.5,511.5 Z"/></g>
</svg>
