<?xml version="1.0" encoding="UTF-8"?>
<!DOCTYPE svg PUBLIC "-//W3C//DTD SVG 1.1//EN" "http://www.w3.org/Graphics/SVG/1.1/DTD/svg11.dtd">
<svg xmlns="http://www.w3.org/2000/svg" version="1.1" width="512px" height="512px" style="shape-rendering:geometricPrecision; text-rendering:geometricPrecision; image-rendering:optimizeQuality; fill-rule:evenodd; clip-rule:evenodd" xmlns:xlink="http://www.w3.org/1999/xlink">
<g><path style="opacity:0.992" fill="#ffffff" d="M 35.5,75.5 C 182.167,75.3333 328.834,75.5 475.5,76C 479.385,76.7394 483.052,78.0728 486.5,80C 419.806,147.028 352.806,213.694 285.5,280C 265.5,295.333 245.5,295.333 225.5,280C 158.194,213.694 91.1941,147.028 24.5,80C 28.1574,78.1776 31.8241,76.6776 35.5,75.5 Z"/></g>
<g><path style="opacity:0.988" fill="#ffffff" d="M -0.5,399.5 C -0.5,303.5 -0.5,207.5 -0.5,111.5C 0.677626,107.824 2.17763,104.157 4,100.5C 56.3194,151.653 108.153,203.319 159.5,255.5C 108.153,307.681 56.3194,359.347 4,410.5C 2.17763,406.843 0.677626,403.176 -0.5,399.5 Z"/></g>
<g><path style="opacity:0.988" fill="#ffffff" d="M 511.5,111.5 C 511.5,207.5 511.5,303.5 511.5,399.5C 510.322,403.176 508.822,406.843 507,410.5C 454.681,359.347 402.847,307.681 351.5,255.5C 402.847,203.319 454.681,151.653 507,100.5C 508.822,104.157 510.322,107.824 511.5,111.5 Z"/></g>
<g><path style="opacity:0.991" fill="#ffffff" d="M 179.5,276.5 C 190.978,287.141 202.644,297.641 214.5,308C 246.425,325.933 276.758,323.6 305.5,301C 313.5,293 321.5,285 329.5,277C 330.167,276.333 330.833,276.333 331.5,277C 383.472,327.972 435.139,379.306 486.5,431C 483.052,432.927 479.385,434.261 475.5,435C 328.833,435.667 182.167,435.667 35.5,435C 31.6148,434.261 27.9481,432.927 24.5,431C 76.0616,379.272 127.728,327.772 179.5,276.5 Z"/></g>
</svg>
