<?xml version="1.0" encoding="UTF-8"?>
<!DOCTYPE svg PUBLIC "-//W3C//DTD SVG 1.1//EN" "http://www.w3.org/Graphics/SVG/1.1/DTD/svg11.dtd">
<svg xmlns="http://www.w3.org/2000/svg" version="1.1" width="512px" height="512px" style="shape-rendering:geometricPrecision; text-rendering:geometricPrecision; image-rendering:optimizeQuality; fill-rule:evenodd; clip-rule:evenodd" xmlns:xlink="http://www.w3.org/1999/xlink">
<g><path style="opacity:0.99" fill="#ffffff" d="M 236.5,15.5 C 312.569,11.1128 370.403,41.1128 410,105.5C 436.713,156.02 438.379,207.353 415,259.5C 398.492,296.86 379.159,332.527 357,366.5C 328.581,410.17 298.081,452.336 265.5,493C 258.833,497.667 252.167,497.667 245.5,493C 197.682,434.224 155.182,371.724 118,305.5C 104.521,280.878 93.5212,255.211 85,228.5C 70.8469,161.294 89.0135,104.461 139.5,58C 167.749,34.5427 200.083,20.376 236.5,15.5 Z M 255.5,111.5 C 288.943,114.304 309.776,131.97 318,164.5C 321.106,200.706 305.606,224.873 271.5,237C 236.185,243.259 211.019,230.092 196,197.5C 186.534,162.541 197.367,136.041 228.5,118C 237.295,114.383 246.295,112.216 255.5,111.5 Z"/></g>
</svg>
