<?xml version="1.0" encoding="UTF-8"?>
<!DOCTYPE svg PUBLIC "-//W3C//DTD SVG 1.1//EN" "http://www.w3.org/Graphics/SVG/1.1/DTD/svg11.dtd">
<svg xmlns="http://www.w3.org/2000/svg" version="1.1" width="512px" height="512px" style="shape-rendering:geometricPrecision; text-rendering:geometricPrecision; image-rendering:optimizeQuality; fill-rule:evenodd; clip-rule:evenodd" xmlns:xlink="http://www.w3.org/1999/xlink">
<g><path style="opacity:0.984" fill="#ffffff" d="M 511.5,196.5 C 511.5,202.167 511.5,207.833 511.5,213.5C 476.167,213.5 440.833,213.5 405.5,213.5C 404.703,190.62 398.203,169.62 386,150.5C 376.94,140.117 365.773,132.95 352.5,129C 342.996,126.404 333.329,124.737 323.5,124C 279.5,122.059 235.5,121.725 191.5,123C 170.182,123.551 150.849,129.884 133.5,142C 121.951,153.253 114.118,166.753 110,182.5C 107.634,192.616 105.8,202.783 104.5,213C 69.5016,213.5 34.5016,213.667 -0.5,213.5C -0.5,208.5 -0.5,203.5 -0.5,198.5C 5.5393,124.608 44.5393,78.1081 116.5,59C 162.151,47.8352 208.485,43.0019 255.5,44.5C 302.518,43.0021 348.851,47.8355 394.5,59C 465.958,77.5146 504.958,123.348 511.5,196.5 Z"/></g>
<g><path style="opacity:0.988" fill="#ffffff" d="M 161.5,176.5 C 172.301,176.192 182.968,177.025 193.5,179C 194.333,179.833 195.167,180.667 196,181.5C 196.5,189.827 196.666,198.16 196.5,206.5C 232.5,206.5 268.5,206.5 304.5,206.5C 304.334,198.826 304.5,191.159 305,183.5C 305.273,181.671 306.107,180.171 307.5,179C 322.918,175.507 338.251,175.673 353.5,179.5C 354.192,180.025 354.692,180.692 355,181.5C 355.333,191.833 355.667,202.167 356,212.5C 392.673,255.527 426.673,300.527 458,347.5C 460.588,351.674 462.921,356.007 465,360.5C 465.667,391.5 465.667,422.5 465,453.5C 463.945,459.806 460.445,463.973 454.5,466C 318.5,466.667 182.5,466.667 46.5,466C 42,464.167 38.8333,461 37,456.5C 36.3333,424.167 36.3333,391.833 37,359.5C 51.1566,335.684 66.4899,312.684 83,290.5C 102.906,263.924 123.572,237.924 145,212.5C 145.333,202.167 145.667,191.833 146,181.5C 147.214,179.951 148.714,178.785 150.5,178C 154.356,177.823 158.023,177.323 161.5,176.5 Z M 185.5,246.5 C 198.283,245.12 204.449,250.786 204,263.5C 198.621,274.198 190.788,276.364 180.5,270C 174.08,260.436 175.747,252.603 185.5,246.5 Z M 245.5,246.5 C 256.13,244.964 262.463,249.464 264.5,260C 261.139,273.184 253.472,276.85 241.5,271C 235.923,265.146 235.09,258.646 239,251.5C 240.965,249.45 243.132,247.783 245.5,246.5 Z M 305.5,246.5 C 321.279,246.396 326.445,253.729 321,268.5C 312.08,276.526 304.08,275.526 297,265.5C 294.891,257.045 297.724,250.712 305.5,246.5 Z M 188.5,295.5 C 199.985,296.166 205.152,302.166 204,313.5C 199.888,322.762 193.055,325.596 183.5,322C 175.016,314.958 174.349,307.291 181.5,299C 183.925,297.787 186.259,296.621 188.5,295.5 Z M 248.5,295.5 C 261.956,297.439 266.456,304.773 262,317.5C 255.522,324.405 248.355,325.238 240.5,320C 233.336,308.514 236.003,300.347 248.5,295.5 Z M 308.5,295.5 C 322.533,297.75 326.699,305.417 321,318.5C 315.146,324.077 308.646,324.91 301.5,321C 294.538,312.971 294.871,305.305 302.5,298C 304.611,297.155 306.611,296.322 308.5,295.5 Z M 187.5,345.5 C 202.131,346.436 206.965,353.77 202,367.5C 196.442,373.924 189.942,375.091 182.5,371C 176.043,365.472 174.876,358.972 179,351.5C 181.322,348.605 184.155,346.605 187.5,345.5 Z M 247.5,345.5 C 257.268,345.214 262.934,349.881 264.5,359.5C 261.712,372.061 254.378,375.894 242.5,371C 236.079,365.482 234.913,358.982 239,351.5C 241.322,348.605 244.155,346.605 247.5,345.5 Z M 307.5,345.5 C 323.439,347.877 327.439,356.044 319.5,370C 310.031,375.891 302.531,374.057 297,364.5C 294.794,354.906 298.294,348.572 307.5,345.5 Z"/></g>
<g><path style="opacity:0.966" fill="#ffffff" d="M -0.5,224.5 C 34.8333,224.5 70.1667,224.5 105.5,224.5C 105.785,233.797 103.619,242.463 99,250.5C 93.5836,255.758 87.0836,258.924 79.5,260C 61.5,260.667 43.5,260.667 25.5,260C 11.3207,258.642 2.65407,251.142 -0.5,237.5C -0.5,233.167 -0.5,228.833 -0.5,224.5 Z"/></g>
<g><path style="opacity:0.962" fill="#ffffff" d="M 511.5,224.5 C 511.5,228.5 511.5,232.5 511.5,236.5C 509.127,247.375 502.46,254.208 491.5,257C 471.213,259.683 450.88,260.017 430.5,258C 411.909,254.699 403.576,243.533 405.5,224.5C 440.833,224.5 476.167,224.5 511.5,224.5 Z"/></g>
</svg>
