<?xml version="1.0" encoding="UTF-8"?>
<!DOCTYPE svg PUBLIC "-//W3C//DTD SVG 1.1//EN" "http://www.w3.org/Graphics/SVG/1.1/DTD/svg11.dtd">
<svg xmlns="http://www.w3.org/2000/svg" version="1.1" width="512px" height="512px" style="shape-rendering:geometricPrecision; text-rendering:geometricPrecision; image-rendering:optimizeQuality; fill-rule:evenodd; clip-rule:evenodd" xmlns:xlink="http://www.w3.org/1999/xlink">
<g><path style="opacity:0.987" fill="#ffffff" d="M 169.5,-0.5 C 176.833,-0.5 184.167,-0.5 191.5,-0.5C 214.3,4.62609 229.634,18.2928 237.5,40.5C 246.482,41.332 255.482,41.832 264.5,42C 271.333,43.5 275.5,47.6667 277,54.5C 277.792,69.0218 277.625,83.5218 276.5,98C 272.932,113.234 263.599,122.901 248.5,127C 203.5,127.667 158.5,127.667 113.5,127C 98.2326,122.733 88.7326,112.899 85,97.5C 84.3333,82.8333 84.3333,68.1667 85,53.5C 86.9081,47.2602 91.0747,43.4269 97.5,42C 106.494,41.5002 115.494,41.3336 124.5,41.5C 131.799,19.1993 146.799,5.19928 169.5,-0.5 Z"/></g>
<g><path style="opacity:0.987" fill="#ffffff" d="M -0.5,399.5 C -0.5,303.167 -0.5,206.833 -0.5,110.5C 8.90384,78.7813 30.2372,63.1146 63.5,63.5C 62.7831,78.671 63.9498,93.671 67,108.5C 75.7778,131.272 92.2778,144.438 116.5,148C 159.5,148.667 202.5,148.667 245.5,148C 273.771,143.063 290.937,126.563 297,98.5C 297.5,86.8381 297.667,75.1714 297.5,63.5C 332.145,62.6559 353.645,78.9892 362,112.5C 362.667,163.5 362.667,214.5 362,265.5C 336.833,290.667 311.667,315.833 286.5,341C 216.167,341.333 145.833,341.667 75.5,342C 65.1085,346.296 61.9418,353.796 66,364.5C 68.6867,368.194 72.1867,370.694 76.5,372C 135.833,372.333 195.167,372.667 254.5,373C 244.223,382.271 235.057,392.438 227,403.5C 221.472,417.659 217.972,432.325 216.5,447.5C 158.462,447.98 100.462,447.48 42.5,446C 19.2561,438.595 4.92281,423.095 -0.5,399.5 Z M 76.5,202.5 C 146.167,202.333 215.834,202.5 285.5,203C 296.693,207.579 299.86,215.413 295,226.5C 292.736,229.433 289.902,231.6 286.5,233C 216.167,233.667 145.833,233.667 75.5,233C 65.0884,228.667 61.9218,221.167 66,210.5C 68.8552,206.789 72.3552,204.123 76.5,202.5 Z M 79.5,271.5 C 147.167,271.333 214.834,271.5 282.5,272C 291.725,273.058 296.725,278.225 297.5,287.5C 296.725,296.775 291.725,301.942 282.5,303C 214.833,303.667 147.167,303.667 79.5,303C 65.6563,299.813 61.4896,291.646 67,278.5C 70.4641,274.69 74.6308,272.356 79.5,271.5 Z"/></g>
<g><path style="opacity:0.983" fill="#ffffff" d="M 511.5,301.5 C 511.5,307.5 511.5,313.5 511.5,319.5C 509.573,324.687 507.073,329.687 504,334.5C 449.5,389 395,443.5 340.5,498C 318.508,503.05 296.508,507.55 274.5,511.5C 269.833,511.5 265.167,511.5 260.5,511.5C 253.995,508.001 250.662,502.501 250.5,495C 253.981,470.612 258.481,446.445 264,422.5C 317.472,368.027 371.306,313.861 425.5,260C 431.08,255.043 437.413,251.376 444.5,249C 455.378,246.607 465.045,248.94 473.5,256C 483,265.5 492.5,275 502,284.5C 506.237,289.647 509.404,295.314 511.5,301.5 Z"/></g>
</svg>
